<svg width="120" height="120" viewBox="0 0 120 120" xmlns="http://www.w3.org/2000/svg">
  <defs>
    <!-- 主渐变 -->
    <linearGradient id="mainGrad" x1="0%" y1="0%" x2="100%" y2="100%">
      <stop offset="0%" style="stop-color:#1890ff;stop-opacity:1" />
      <stop offset="100%" style="stop-color:#722ed1;stop-opacity:1" />
    </linearGradient>
    
    <!-- 气泡渐变 - 更统一的渐变 -->
    <linearGradient id="bubbleGrad" x1="0%" y1="0%" x2="100%" y2="100%">
      <stop offset="0%" style="stop-color:#1890ff;stop-opacity:1" />
      <stop offset="100%" style="stop-color:#722ed1;stop-opacity:1" />
    </linearGradient>
    
    <!-- 背景渐变 -->
    <radialGradient id="bgGrad" cx="50%" cy="50%" r="50%">
      <stop offset="0%" style="stop-color:#e6f7ff;stop-opacity:0.6" />
      <stop offset="100%" style="stop-color:#f0f9ff;stop-opacity:0.2" />
    </radialGradient>
    
    <!-- 阴影滤镜 -->
    <filter id="shadow" x="-20%" y="-20%" width="140%" height="140%">
      <feDropShadow dx="0" dy="6" stdDeviation="12" flood-color="#1890ff" flood-opacity="0.15"/>
    </filter>
  </defs>
  
  <!-- 背景圆形 -->
  <circle cx="60" cy="60" r="58" fill="url(#bgGrad)"/>
  
  <!-- 主图标组 -->
  <g filter="url(#shadow)">
    <!-- 手机/设备主体 -->
    <rect x="35" y="25" width="50" height="70" rx="8" ry="8" 
          fill="url(#mainGrad)" stroke="#1890ff" stroke-width="1.5"/>
    
    <!-- 屏幕 -->
    <rect x="38" y="32" width="44" height="56" rx="4" ry="4" 
          fill="#ffffff" opacity="0.95"/>
    
    <!-- 消息气泡1 - 发送 -->
    <g opacity="0.9">
      <rect x="46" y="38" width="26" height="15" rx="4" ry="4" fill="#1890ff"/>
      <polygon points="48,52.5 50,58 52,52.5" fill="#1890ff"/>
    </g>
    
    <!-- 消息气泡2 - 接收 -->
    <g opacity="0.8">
      <rect x="48" y="58" width="24" height="12" rx="3" ry="3" fill="#f0f0f0"/>
      <polygon points="72,69.5 74,75 76,69.5" fill="#f0f0f0"/>
    </g>
    
    <!-- 消息气泡3 - 发送 -->
    <g opacity="0.7">
      <rect x="46" y="70" width="16" height="10" rx="3" ry="3" fill="#1890ff"/>
      <polygon points="48,79.5 50,83 52,79.5" fill="#1890ff"/>
    </g>
    
    <!-- 状态指示点 -->
    <circle cx="45" cy="30" r="2" fill="#52c41a"/>
    <circle cx="52" cy="30" r="2" fill="#faad14"/>
    <circle cx="59" cy="30" r="2" fill="#ff4d4f"/>
    
    <!-- 连接线/网络信号 -->
    <g stroke="url(#mainGrad)" stroke-width="1.5" opacity="0.5">
      <line x1="25" y1="48" x2="35" y2="48"/>
      <line x1="25" y1="54" x2="35" y2="54"/>
      <line x1="25" y1="60" x2="35" y2="60"/>
      <line x1="25" y1="66" x2="35" y2="66"/>
      
      <line x1="85" y1="48" x2="95" y2="48"/>
      <line x1="85" y1="54" x2="95" y2="54"/>
      <line x1="85" y1="60" x2="95" y2="60"/>
      <line x1="85" y1="66" x2="95" y2="66"/>
    </g>
  </g>
  
  <!-- 装饰性元素 -->
  <circle cx="20" cy="45" r="3" fill="url(#mainGrad)" opacity="0.3"/>
  <circle cx="100" cy="45" r="3" fill="url(#mainGrad)" opacity="0.3"/>
  <circle cx="20" cy="75" r="3" fill="url(#mainGrad)" opacity="0.3"/>
  <circle cx="100" cy="75" r="3" fill="url(#mainGrad)" opacity="0.3"/>
</svg> 